<?xml version="1.0" encoding="utf-8"?>
<!-- Generator: Adobe Illustrator 22.0.1, SVG Export Plug-In . SVG Version: 6.00 Build 0)  -->
<svg version="1.1" id="layer_1" xmlns="http://www.w3.org/2000/svg" xmlns:xlink="http://www.w3.org/1999/xlink" x="0px" y="0px"
	 width="175px" height="175px" viewBox="0 0 1400 1400" style="enable-background:new 0 0 1400 1400;" xml:space="preserve">
<style type="text/css">
	.st0{fill:#F6E9A7;}
	.st1{fill:#D8CA91;}
	.st2{fill:#5CA680;}
	.st3{fill:#F16122;}
	.st4{fill:#EE443B;}
	.st5{fill:#1E1717;}
	.st6{fill:#FFFFFF;}
	.st7{fill:#382D2D;}
	.st8{clip-path:url(#SVGID_2_);}
	.st9{fill:#F1F1F1;}
	.st10{fill:none;}
	.st11{fill:#261E1E;}
</style>
<g>
	<rect x="0" y="0" class="st0" width="1400" height="1400"/>
	<polygon class="st1" points="0,0 1400,1400 0,1400 	"/>
	<g>
		<rect x="275.8" y="0" class="st2" width="297.7" height="1400"/>
		<rect x="677.7" y="0" class="st3" width="223.3" height="1400"/>
		<rect x="900.9" y="0" class="st4" width="223.3" height="1400"/>
		<rect x="573.5" y="0" class="st0" width="104.2" height="1400"/>
	</g>
	<g>
		<path class="st0" d="M987.9,1231.2c-293.4,159-660.1,50.1-819.2-243.3C9.8,694.6,118.7,327.8,412,168.8
			c293.4-159,660.1-50.1,819.2,243.3C1390.2,705.4,1281.3,1072.2,987.9,1231.2"/>
		<path class="st5" d="M972.9,1203.5c-278.1,150.7-625.7,47.5-776.5-230.6C45.7,694.8,149,347.2,427.1,196.5
			C705.1,45.7,1052.8,149,1203.5,427C1354.3,705.1,1251,1052.8,972.9,1203.5"/>
		<path class="st5" d="M958.1,1176.1c-262.9,142.5-591.6,44.9-734.1-218C81.4,695.1,179,366.4,441.9,223.9
			c262.9-142.5,591.6-44.9,734.1,218C1318.6,704.9,1221,1033.5,958.1,1176.1"/>
		<path class="st6" d="M221.1,959.6c-35-64.7-56.4-134.2-63.4-206.8c-6.8-70.1,0-140,20.1-207.9c20.1-67.8,52.6-130.1,96.6-185.1
			c45.5-57,101.4-103.6,166-138.7c64.6-35,134.2-56.4,206.8-63.4c70.1-6.8,140,0,207.8,20.1c67.8,20.1,130.1,52.6,185.1,96.6
			c57,45.5,103.6,101.4,138.7,166c35,64.6,56.4,134.2,63.4,206.8c6.8,70.1,0,140-20.1,207.8c-20.1,67.8-52.6,130.1-96.6,185.1
			c-45.5,57-101.4,103.6-166,138.7c-64.6,35-134.2,56.4-206.8,63.4c-70.1,6.8-140,0-207.8-20.1c-67.8-20.1-130.1-52.6-185.1-96.6
			C302.8,1080.1,256.2,1024.2,221.1,959.6 M1171.8,444.3c-141-260.1-467.4-357-727.5-216c-260.1,141-357,467.4-216,727.5
			c141,260.1,467.4,357,727.5,216C1215.9,1030.8,1312.8,704.4,1171.8,444.3"/>
		<path class="st7" d="M835.1,949.2c-137.7,74.6-309.7,23.5-384.4-114.1c-74.6-137.7-23.5-309.7,114.1-384.4
			c137.7-74.6,309.7-23.5,384.4,114.1C1023.9,702.5,972.8,874.6,835.1,949.2"/>
		<path class="st0" d="M800.3,885c-102.2,55.4-229.9,17.5-285.2-84.7c-55.4-102.2-17.5-229.9,84.7-285.2
			c102.2-55.4,229.9-17.4,285.2,84.7C940.3,701.9,902.4,829.6,800.3,885"/>
		<g>
			<defs>
				<path id="SVGID_1_" d="M794.1,873.7c-95.9,52-215.8,16.4-267.8-79.5c-52-95.9-16.4-215.8,79.5-267.8
					c95.9-52,215.8-16.4,267.8,79.5C925.7,701.8,890,821.7,794.1,873.7"/>
			</defs>
			<clipPath id="SVGID_2_">
				<use xlink:href="#SVGID_1_"  style="overflow:visible;"/>
			</clipPath>
			<g class="st8">
				
					<rect x="464.1" y="567.5" transform="matrix(0.9848 -0.1736 0.1736 0.9848 -96.2839 128.2561)" class="st2" width="441.7" height="93.9"/>
				
					<rect x="484.1" y="692.5" transform="matrix(0.9848 -0.1736 0.1736 0.9848 -115.6514 133.4442)" class="st3" width="441.7" height="70.4"/>
				
					<rect x="496.3" y="761.9" transform="matrix(0.9848 -0.1737 0.1737 0.9848 -127.5302 136.6476)" class="st4" width="441.7" height="70.4"/>
				
					<rect x="475.1" y="660.4" transform="matrix(0.9848 -0.1737 0.1737 0.9848 -107.0035 131.1851)" class="st0" width="441.7" height="32.9"/>
			</g>
		</g>
		<path class="st5" d="M708,714.7c-8.1,4.4-18.2,1.4-22.6-6.7c-4.4-8.1-1.4-18.2,6.7-22.6c8.1-4.4,18.2-1.4,22.6,6.7
			C719.1,700.1,716.1,710.3,708,714.7"/>
		<path class="st9" d="M703.8,707.1c-3.9,2.1-8.8,0.7-10.9-3.2c-2.1-3.9-0.7-8.8,3.2-10.9c3.9-2.1,8.8-0.7,10.9,3.2
			C709.2,700.1,707.7,704.9,703.8,707.1"/>
		<path class="st10" d="M634.3,327.3l2.3,13c55.1-9.8,112.1-6.7,167.4,9.7c93.5,27.8,170.6,90.3,217,176c19,35.1,32,72.4,38.7,110.6
			l13-2.3c-6.9-39.1-20.1-77.8-40-114.6C953.2,373,790.2,299.9,634.3,327.3z"/>
		<path class="st10" d="M739.7,1107.4c-52.7,5.1-105.2,0-156.2-15.1c-50.9-15.1-97.7-39.5-139.1-72.6
			c-42.8-34.2-77.9-76.1-104.2-124.7c-21.2-39.2-35.7-80.7-43.3-123.9l-15.6,2.8c7.7,44,22.5,87.4,45,128.8
			c89.3,164.8,272.5,246.9,447.7,216.1l-2.8-15.6C760.7,1104.9,750.2,1106.4,739.7,1107.4z"/>
		<path class="st10" d="M810,329.5c99,29.4,180.6,95.6,229.8,186.3c20.1,37.2,33.9,76.6,41,117l14.2-2.5
			c-7.3-41.5-21.3-82.5-42.4-121.5c-84.3-155.4-257-232.9-422.3-203.9l2.5,14.2C691.2,308.8,751.6,312.1,810,329.5z"/>
		<path class="st10" d="M769.7,1095.1l-2.5-14.2c-58.3,10.3-118.7,7.1-177.2-10.3c-99-29.4-180.6-95.6-229.8-186.3
			c-20.1-37.2-33.9-76.6-41-117l-14.2,2.5c7.3,41.5,21.3,82.5,42.4,121.5C431.6,1046.6,604.4,1124.1,769.7,1095.1z"/>
		<path class="st10" d="M626.2,281.2l2.8,15.6c10.4-1.8,20.9-3.3,31.4-4.3c52.7-5.1,105.2,0,156.2,15.1
			c50.9,15.1,97.7,39.5,139.1,72.6c42.8,34.2,77.9,76.1,104.2,124.7c21.2,39.2,35.7,80.7,43.3,123.9l15.6-2.8
			c-7.7-44-22.5-87.4-45-128.8C984.5,332.6,801.3,250.5,626.2,281.2z"/>
		<path class="st10" d="M1012.8,644.8c-5.8-32.8-16.8-65.3-33.6-96.2c-66.7-123.1-203.5-184.4-334.4-161.5L700,700L1012.8,644.8z"/>
		<path class="st10" d="M658,268.6c55.8-5.4,111.4,0,165.3,16c53.9,16,103.5,41.9,147.3,76.8c45.3,36.2,82.4,80.6,110.3,132
			c22.5,41.5,37.9,85.5,45.9,131.2l43.6-7.7c-8.7-49.4-25.3-98.2-50.5-144.7C1019.6,287.2,813.9,195,617,229.5l7.7,43.6
			C635.7,271.2,646.8,269.7,658,268.6z"/>
		<path class="st10" d="M596.1,1050c-93.5-27.8-170.6-90.3-217-176c-19-35.1-32-72.4-38.7-110.6l-13,2.3c6.9,39.1,20,77.8,40,114.6
			c79.5,146.6,242.5,219.7,398.4,192.3l-2.3-13C708.3,1069.5,651.3,1066.4,596.1,1050z"/>
		<path class="st10" d="M607.3,1012.3c-83.4-24.8-152.2-80.5-193.6-157c-17-31.3-28.5-64.6-34.6-98.6l-10.7,1.9
			c6.1,34.8,17.8,69.2,35.6,102C474.7,991,619.7,1056,758.5,1031.6l-1.9-10.7C707.4,1029.7,656.5,1026.9,607.3,1012.3z"/>
		<path class="st10" d="M755.2,1012.8L700,700l-312.8,55.2c5.8,32.8,16.8,65.3,33.6,96.2C487.5,974.5,624.3,1035.8,755.2,1012.8z"/>
		<path class="st10" d="M783,1170.5l-7.7-43.6c-11,1.9-22.1,3.5-33.3,4.5c-55.8,5.4-111.4,0-165.3-16
			c-53.9-16-103.5-41.9-147.3-76.8c-45.3-36.2-82.4-80.6-110.3-132c-22.5-41.5-37.9-85.5-45.9-131.2l-43.6,7.7
			c8.7,49.4,25.3,98.2,50.5,144.7C380.4,1112.8,586.1,1205,783,1170.5z"/>
		<path class="st10" d="M798.2,369.4c88.3,26.2,161.1,85.3,205,166.2c18,33.1,30.2,68.3,36.6,104.4l11.8-2.1
			c-6.5-36.9-18.9-73.4-37.7-108.1c-75-138.3-228.8-207.3-375.8-181.5l2.1,11.8C692.1,351,746,353.9,798.2,369.4z"/>
		<path class="st10" d="M762,1051.6l-2.1-11.8c-52.1,9.2-105.9,6.3-158.1-9.2c-88.3-26.2-161.1-85.3-205-166.2
			c-18-33.1-30.2-68.4-36.6-104.4l-11.8,2.1c6.5,36.9,18.9,73.4,37.7,108.1C461.1,1008.4,614.9,1077.4,762,1051.6z"/>
		<path class="st10" d="M641.5,368.4l1.9,10.7c49.2-8.7,100.1-5.9,149.3,8.7c83.4,24.8,152.2,80.5,193.6,157
			c17,31.3,28.5,64.6,34.6,98.6l10.7-1.9c-6.1-34.8-17.8-69.2-35.6-102C925.3,409,780.3,344,641.5,368.4z"/>
		<path class="st10" d="M747.1,1183.6c-62.5,6.1-124.9,0-185.4-17.9c-60.5-18-116-46.9-165.1-86.1c-50.8-40.6-92.4-90.4-123.7-148
			c-25.2-46.5-42.4-95.8-51.5-147.1l-20.1,3.5c9.2,52.4,26.8,104.1,53.5,153.4c106.3,196.2,324.4,294,533,257.4l-3.5-20.1
			C772.1,1180.7,759.6,1182.4,747.1,1183.6z"/>
		<path class="st10" d="M612.1,201.3l3.5,20.1c12.3-2.2,24.8-3.9,37.3-5.1c62.5-6.1,124.9,0,185.4,17.9c60.5,18,116,46.9,165.1,86.1
			c50.8,40.6,92.4,90.4,123.7,148c25.2,46.5,42.4,95.8,51.5,147.1l20.1-3.5c-9.2-52.4-26.8-104.1-53.5-153.4
			C1038.8,262.5,820.7,164.7,612.1,201.3z"/>
		<path class="st7" d="M979.2,548.6c16.7,30.9,27.8,63.4,33.6,96.2l8.1-1.4c-6-34.1-17.6-67.3-34.6-98.6
			c-41.5-76.5-110.2-132.3-193.6-157c-49.3-14.6-100.2-17.4-149.3-8.7l1.4,8.1C775.7,364.2,912.5,425.5,979.2,548.6z"/>
		<path class="st7" d="M420.8,851.4c-16.7-30.9-27.8-63.4-33.6-96.2l-8.1,1.4c6,34.1,17.6,67.3,34.6,98.6
			c41.5,76.5,110.2,132.3,193.6,157c49.3,14.6,100.2,17.4,149.3,8.7l-1.4-8.1C624.3,1035.8,487.5,974.5,420.8,851.4z"/>
		<path class="st7" d="M996,539.5c17.8,32.8,29.5,67.2,35.6,102l8.1-1.4c-6.4-36.1-18.6-71.3-36.6-104.4
			c-43.9-81-116.7-140-205-166.2c-52.2-15.5-106-18.4-158.1-9.2l1.4,8.1C780.3,344,925.3,409,996,539.5z"/>
		<path class="st7" d="M404,860.5c-17.8-32.8-29.5-67.2-35.6-102l-8.1,1.4c6.4,36.1,18.6,71.3,36.6,104.4
			c43.9,81,116.7,140,205,166.2c52.2,15.5,106,18.4,158.1,9.2l-1.4-8.1C619.7,1056,474.7,991,404,860.5z"/>
		<path class="st7" d="M1013.8,529.9c18.8,34.7,31.3,71.2,37.7,108.1l8.1-1.4c-6.8-38.2-19.7-75.5-38.7-110.6
			c-46.5-85.7-123.5-148.2-217-176c-55.2-16.4-112.2-19.5-167.4-9.7l1.4,8.1C785.1,322.6,938.9,391.5,1013.8,529.9z"/>
		<path class="st7" d="M386.2,870.1c-18.8-34.7-31.3-71.2-37.7-108.1l-8.1,1.4c6.8,38.2,19.7,75.5,38.7,110.6
			c46.5,85.7,123.5,148.2,217,176c55.2,16.4,112.2,19.5,167.4,9.7l-1.4-8.1C614.9,1077.4,461.1,1008.4,386.2,870.1z"/>
		<path class="st7" d="M367.3,880.3c-20-36.8-33.1-75.5-40-114.6l-8.1,1.4c7.2,40.4,20.9,79.9,41,117
			C409.4,975,491,1041.1,590,1070.5c58.5,17.4,118.8,20.6,177.2,10.3l-1.4-8.1C609.8,1100.1,446.8,1027,367.3,880.3z"/>
		<path class="st7" d="M1032.7,519.7c19.9,36.8,33.1,75.5,40,114.6l8.1-1.4c-7.2-40.4-20.9-79.9-41-117
			C990.6,425,909,358.9,810,329.5c-58.5-17.4-118.8-20.7-177.2-10.3l1.4,8.1C790.2,299.9,953.2,373,1032.7,519.7z"/>
		<path class="st7" d="M1052.7,508.8c21.1,39,35.1,80,42.4,121.5l8.1-1.4c-7.6-43.2-22.1-84.8-43.3-123.9
			c-26.3-48.6-61.4-90.5-104.2-124.7c-41.3-33-88.1-57.4-139.1-72.6c-51-15.1-103.5-20.2-156.2-15.1c-10.6,1-21,2.5-31.4,4.3
			l1.4,8.1C795.6,275.9,968.4,353.4,1052.7,508.8z"/>
		<path class="st7" d="M347.3,891.2c-21.1-39-35.1-80-42.4-121.5l-8.1,1.4c7.6,43.2,22.1,84.8,43.3,123.9
			c26.3,48.6,61.4,90.5,104.2,124.7c41.3,33,88.1,57.4,139.1,72.6c50.9,15.1,103.5,20.2,156.2,15.1c10.6-1,21-2.5,31.4-4.3l-1.4-8.1
			C604.4,1124.1,431.6,1046.6,347.3,891.2z"/>
		<path class="st7" d="M1073.8,497.4c22.4,41.4,37.2,84.8,45,128.8l8.1-1.4c-8-45.8-23.4-89.8-45.9-131.2
			c-27.9-51.4-65-95.9-110.3-132c-43.8-35-93.3-60.8-147.3-76.8c-53.9-16-109.6-21.4-165.3-16c-11.2,1.1-22.3,2.6-33.3,4.5l1.4,8.1
			C801.3,250.5,984.5,332.6,1073.8,497.4z"/>
		<path class="st7" d="M326.2,902.6c-22.4-41.4-37.2-84.8-45-128.8l-8.1,1.4c8,45.8,23.4,89.8,45.9,131.2
			c27.9,51.4,65,95.9,110.3,132c43.8,35,93.3,60.8,147.3,76.8c53.9,16,109.6,21.4,165.3,16c11.2-1.1,22.3-2.6,33.3-4.5l-1.4-8.1
			C598.7,1149.5,415.5,1067.4,326.2,902.6z"/>
		<path class="st7" d="M1120,472.3c25.2,46.5,41.8,95.3,50.5,144.7l8.1-1.4c-9-51.3-26.3-100.6-51.5-147.1
			c-31.3-57.7-72.9-107.5-123.7-148c-49.1-39.2-104.6-68.2-165.1-86.1c-60.5-18-122.8-24-185.4-17.9c-12.5,1.2-25,2.9-37.3,5.1
			l1.4,8.1C813.9,195,1019.6,287.2,1120,472.3z"/>
		<path class="st7" d="M280,927.6c-25.2-46.5-41.8-95.3-50.5-144.7l-8.1,1.4c9,51.3,26.3,100.6,51.5,147.1
			c31.3,57.7,72.9,107.5,123.7,148c49.1,39.2,104.6,68.2,165.1,86.1c60.5,18,122.8,24,185.4,17.9c12.5-1.2,25-2.9,37.3-5.1l-1.4-8.1
			C586.1,1205,380.4,1112.8,280,927.6z"/>
		<path class="st7" d="M1145.1,458.7c26.7,49.2,44.3,101,53.5,153.4l8.1-1.4c-9.6-54.3-27.8-106.6-54.5-155.8
			c-33.1-61-77.2-113.8-131-156.8c-52-41.5-110.8-72.2-174.8-91.2c-64-19-130.1-25.4-196.3-19c-13.3,1.3-26.5,3.1-39.5,5.4l1.4,8.1
			C820.7,164.7,1038.8,262.5,1145.1,458.7z"/>
		<path class="st7" d="M254.9,941.3c-26.7-49.2-44.3-101-53.5-153.4l-8.1,1.4c9.6,54.3,27.8,106.6,54.5,155.8
			c33.1,61.1,77.2,113.8,131,156.8c52,41.5,110.8,72.2,174.8,91.2c64,19,130.1,25.4,196.3,19c13.3-1.3,26.5-3.1,39.5-5.4l-1.4-8.1
			C579.3,1235.3,361.2,1137.5,254.9,941.3z"/>
		<path class="st10" d="M906.5,1080.9c51.4-27.9,95.9-65,132-110.3c35-43.8,60.8-93.3,76.8-147.3c16-53.9,21.4-109.6,16-165.3
			c-1.1-11.2-2.6-22.3-4.5-33.3l17-3c-8.2-46.6-23.9-92.7-47.6-136.5c-94.7-174.6-288.8-261.7-474.5-229.1l3,17
			c-45.8,8-89.8,23.4-131.2,45.9c-51.4,27.9-95.9,65-132.1,110.3c-35,43.8-60.8,93.3-76.8,147.3c-16,53.9-21.4,109.6-16,165.3
			c1.1,11.2,2.6,22.3,4.5,33.3l-17,3c8.2,46.6,23.9,92.7,47.7,136.5c94.7,174.6,288.8,261.7,474.5,229.1l-3-17
			C821,1118.8,865,1103.4,906.5,1080.9z"/>
		<path class="st7" d="M1096.2,485.2c23.8,43.8,39.5,89.9,47.6,136.5l8.1-1.4c-8.5-48.4-24.8-95-48.6-138.9
			c-29.5-54.5-68.8-101.5-116.8-139.8c-46.4-37-98.8-64.4-155.9-81.4c-57.1-17-116-22.7-175.1-16.9c-11.8,1.1-23.6,2.8-35.2,4.8
			l1.4,8.1C807.4,223.5,1001.6,310.6,1096.2,485.2z"/>
		<path class="st7" d="M778.3,1143.9c-185.7,32.6-379.8-54.5-474.5-229.1c-23.8-43.8-39.5-89.9-47.7-136.5l-8.1,1.4
			c8.5,48.4,24.8,95,48.6,138.9c29.5,54.4,68.8,101.5,116.8,139.8c46.4,37,98.8,64.4,155.9,81.4c57.1,17,116,22.7,175.1,16.9
			c11.8-1.1,23.6-2.8,35.2-4.8L778.3,1143.9z"/>
		<g>
			<path class="st11" d="M544.8,413.6c-76.5,41.5-132.3,110.2-157,193.6c-14.6,49.3-17.4,100.2-8.7,149.3l8.1-1.4
				c-23-130.9,38.4-267.7,161.5-334.4c30.9-16.7,63.4-27.8,96.2-33.6l-1.4-8.1C609.3,385.1,576.1,396.7,544.8,413.6z"/>
			<path class="st11" d="M539.5,404c32.8-17.8,67.2-29.5,102-35.6l-1.4-8.1c-36.1,6.4-71.3,18.6-104.4,36.6
				c-81,43.9-140,116.7-166.2,205c-15.5,52.2-18.4,106-9.2,158.1l8.1-1.4C344,619.7,409,474.7,539.5,404z"/>
			<path class="st11" d="M526,379c-85.7,46.5-148.2,123.5-176,217c-16.4,55.2-19.5,112.2-9.7,167.4l8.1-1.4
				c-25.8-147.1,43.1-300.8,181.5-375.8c34.7-18.8,71.2-31.3,108.1-37.7l-1.4-8.1C598.4,347.1,561.1,360,526,379z"/>
			<path class="st11" d="M519.7,367.3c36.8-20,75.5-33.1,114.6-40l-1.4-8.1c-40.4,7.2-79.9,20.9-117,41
				C425,409.4,358.9,491,329.5,590c-17.4,58.5-20.7,118.8-10.3,177.2l8.1-1.4C299.9,609.8,373,446.8,519.7,367.3z"/>
			<path class="st11" d="M380.3,444.4c-33,41.3-57.4,88.1-72.6,139.1c-15.1,50.9-20.2,103.5-15.1,156.2c1,10.6,2.5,21,4.3,31.4
				l8.1-1.4c-29-165.3,48.5-338.1,203.9-422.3c39-21.1,80-35.1,121.5-42.4l-1.4-8.1c-43.2,7.6-84.8,22.1-123.9,43.3
				C456.4,366.5,414.4,401.6,380.3,444.4z"/>
			<path class="st11" d="M497.4,326.2c41.4-22.4,84.8-37.2,128.8-45l-1.4-8.1c-45.8,8-89.8,23.4-131.2,45.9
				c-51.4,27.9-95.9,65-132.1,110.3c-35,43.8-60.8,93.3-76.8,147.3c-16,53.9-21.4,109.6-16,165.3c1.1,11.2,2.6,22.3,4.5,33.3
				l8.1-1.4C250.5,598.7,332.6,415.5,497.4,326.2z"/>
			<path class="st11" d="M320.4,396.6c-39.2,49.1-68.2,104.6-86.1,165.1c-18,60.5-24,122.8-17.9,185.4c1.2,12.5,2.9,25,5.1,37.3
				l8.1-1.4C195,586.1,287.2,380.4,472.4,280c46.5-25.2,95.3-41.8,144.7-50.5l-1.4-8.1c-51.3,9-100.6,26.3-147.1,51.5
				C410.8,304.2,361,345.8,320.4,396.6z"/>
			<path class="st11" d="M458.7,254.9c49.2-26.7,101-44.3,153.4-53.5l-1.4-8.1c-54.3,9.6-106.6,27.8-155.8,54.5
				c-61,33.1-113.8,77.2-156.8,131c-41.5,52-72.2,110.8-91.2,174.8c-19,64-25.4,130.1-19,196.3c1.3,13.3,3.1,26.5,5.4,39.5l8.1-1.4
				C164.7,579.3,262.5,361.2,458.7,254.9z"/>
			<path class="st11" d="M485.2,303.8c43.8-23.8,89.9-39.5,136.5-47.7l-1.4-8.1c-48.4,8.5-95,24.8-138.9,48.6
				c-54.4,29.5-101.5,68.8-139.8,116.8c-37,46.4-64.4,98.8-81.4,155.9c-17,57.1-22.7,116-16.9,175.1c1.1,11.8,2.8,23.6,4.8,35.2
				l8.1-1.4C223.5,592.6,310.6,398.4,485.2,303.8z"/>
			<path class="st11" d="M914.8,1096.2c-43.8,23.8-89.9,39.5-136.5,47.7l1.4,8.1c48.4-8.5,95-24.8,138.9-48.6
				c54.4-29.5,101.5-68.8,139.8-116.8c37-46.4,64.4-98.8,81.4-155.9c17-57.1,22.7-116,16.9-175.1c-1.1-11.8-2.8-23.6-4.8-35.2
				l-8.1,1.4C1176.5,807.4,1089.4,1001.6,914.8,1096.2z"/>
			<path class="st11" d="M851.4,979.2c-30.9,16.7-63.4,27.8-96.2,33.6l1.4,8.1c34.1-6,67.3-17.6,98.6-34.6
				c76.5-41.5,132.3-110.2,157-193.6c14.6-49.3,17.4-100.2,8.7-149.3l-8.1,1.4C1035.8,775.7,974.5,912.5,851.4,979.2z"/>
			<path class="st11" d="M864.3,1003.2c81-43.9,140-116.7,166.2-205c15.5-52.2,18.4-106,9.2-158.1l-8.1,1.4
				C1056,780.3,991,925.3,860.5,996c-32.8,17.8-67.2,29.5-102,35.6l1.4,8.1C796,1033.4,831.2,1021.1,864.3,1003.2z"/>
			<path class="st11" d="M870.1,1013.8c-34.7,18.8-71.2,31.3-108.1,37.7l1.4,8.1c38.2-6.8,75.5-19.7,110.6-38.7
				c85.7-46.5,148.2-123.5,176-217c16.4-55.2,19.5-112.2,9.7-167.4l-8.1,1.4C1077.4,785.1,1008.5,938.8,870.1,1013.8z"/>
			<path class="st11" d="M884.2,1039.8C975,990.6,1041.1,909,1070.5,810c17.4-58.5,20.6-118.8,10.3-177.2l-8.1,1.4
				c27.4,155.9-45.7,318.9-192.4,398.4c-36.8,20-75.5,33.1-114.6,40l1.4,8.1C807.6,1073.7,847,1059.9,884.2,1039.8z"/>
			<path class="st11" d="M891.2,1052.7c-39,21.1-80,35.1-121.5,42.4l1.4,8.1c43.2-7.6,84.8-22.1,123.9-43.3
				c48.6-26.3,90.5-61.4,124.7-104.2c33-41.3,57.4-88.1,72.6-139.1c15.1-50.9,20.2-103.5,15.1-156.1c-1-10.6-2.5-21-4.3-31.4
				l-8.1,1.4C1124.1,795.6,1046.6,968.4,891.2,1052.7z"/>
			<path class="st11" d="M1038.5,970.6c35-43.8,60.8-93.3,76.8-147.3c16-53.9,21.4-109.6,16-165.3c-1.1-11.2-2.6-22.3-4.5-33.3
				l-8.1,1.4c30.7,175.2-51.4,358.3-216.1,447.7c-41.4,22.4-84.8,37.2-128.8,45l1.4,8.1c45.8-8,89.8-23.4,131.2-45.9
				C957.9,1053.1,1002.3,1015.9,1038.5,970.6z"/>
			<path class="st11" d="M927.6,1120c-46.5,25.2-95.3,41.8-144.7,50.5l1.4,8.1c51.3-9,100.6-26.3,147.1-51.5
				c57.7-31.3,107.5-72.9,148-123.7c39.2-49.1,68.2-104.6,86.1-165.1c18-60.5,24-122.8,17.9-185.4c-1.2-12.5-2.9-25-5.1-37.3
				l-8.1,1.4C1205,813.9,1112.8,1019.6,927.6,1120z"/>
			<path class="st11" d="M1101.9,1021.3c41.5-52,72.2-110.8,91.2-174.8c19-64,25.4-130.1,19-196.3c-1.3-13.3-3.1-26.5-5.4-39.5
				l-8.1,1.4c36.6,208.6-61.2,426.7-257.4,533c-49.2,26.7-101,44.3-153.4,53.5l1.4,8.1c54.3-9.6,106.6-27.8,155.8-54.5
				C1006.2,1119.1,1058.9,1075.1,1101.9,1021.3z"/>
		</g>
	</g>
</g>
</svg>
